<?xml version="1.0" standalone="no"?>
<!DOCTYPE svg PUBLIC "-//W3C//DTD SVG 20010904//EN"
 "http://www.w3.org/TR/2001/REC-SVG-20010904/DTD/svg10.dtd">
<svg version="1.0" xmlns="http://www.w3.org/2000/svg"
 width="300.000000pt" height="91.000000pt" viewBox="0 0 300.000000 91.000000"
 preserveAspectRatio="xMidYMid meet">
<metadata>
Created by potrace 1.10, written by Peter Selinger 2001-2011
</metadata>
<g transform="translate(0.000000,91.000000) scale(0.100000,-0.100000)"
fill="#000000" stroke="none">
<path d="M520 881 c-62 -13 -148 -58 -201 -107 -226 -212 -165 -573 118 -707
64 -30 74 -32 183 -32 110 0 118 2 183 34 215 105 306 355 208 568 -37 81
-116 165 -189 202 -87 44 -205 61 -302 42z m241 -57 c111 -44 199 -140 233
-254 72 -241 -98 -482 -350 -498 -198 -12 -361 104 -411 295 -54 205 87 429
297 474 53 12 182 2 231 -17z"/>
<path d="M510 716 c-32 -21 -93 -87 -113 -122 -4 -8 -1 -24 9 -39 14 -22 24
-25 73 -25 31 0 62 -4 69 -8 9 -6 -22 -43 -103 -125 -85 -86 -115 -124 -115
-142 0 -28 42 -80 81 -100 34 -18 45 -10 171 113 l98 96 36 -13 c34 -12 38
-12 59 10 24 24 115 277 115 317 0 12 -10 30 -22 42 -20 18 -35 20 -173 20
-142 0 -152 -1 -185 -24z m350 -22 c0 -8 -103 -318 -108 -324 -2 -3 -17 10
-34 29 l-30 34 -126 -126 c-69 -70 -128 -127 -132 -127 -3 0 -21 16 -40 35
l-34 35 159 161 160 160 -128 -3 c-70 -2 -127 -1 -127 2 0 2 28 33 62 67 l62
63 158 0 c87 0 158 -3 158 -6z"/>
<path d="M1168 680 l-3 -170 35 0 35 0 0 170 0 170 -32 0 -32 0 -3 -170z"/>
<path d="M2340 783 c0 -26 -4 -33 -20 -33 -16 0 -20 -7 -20 -30 0 -23 4 -30
20 -30 18 0 20 -7 20 -73 0 -58 4 -77 18 -89 25 -22 50 -29 78 -22 19 5 24 13
24 36 0 24 -3 29 -16 24 -30 -11 -44 13 -44 75 l0 59 30 -6 c28 -6 30 -5 30
25 0 28 -3 31 -30 31 -27 0 -30 3 -30 33 0 31 -3 34 -30 34 -27 0 -30 -3 -30
-34z"/>
<path d="M1300 630 l0 -120 35 0 35 0 0 78 c0 82 9 102 45 102 36 0 45 -20 45
-102 l0 -78 36 0 36 0 -4 94 c-3 84 -6 97 -27 120 -29 31 -84 35 -113 10 -16
-16 -18 -16 -24 0 -4 10 -18 16 -35 16 l-29 0 0 -120z"/>
<path d="M1540 745 c0 -3 8 -22 18 -43 11 -20 32 -72 47 -115 l28 -78 40 3 41
3 36 100 c21 55 41 108 45 118 6 14 2 17 -28 17 -35 0 -35 -1 -63 -80 -15 -44
-30 -77 -33 -74 -3 3 -18 38 -32 77 -26 70 -27 72 -63 75 -20 2 -36 1 -36 -3z"/>
<path d="M1871 737 c-84 -43 -87 -174 -4 -218 49 -26 163 -5 163 31 0 17 -41
33 -53 21 -16 -16 -59 -13 -85 5 -38 27 -25 34 63 34 l85 0 0 31 c0 84 -91
136 -169 96z m97 -49 c26 -26 13 -38 -43 -38 -59 0 -64 4 -38 32 18 20 63 24
81 6z"/>
<path d="M2114 732 c-55 -44 -34 -102 43 -124 28 -8 49 -20 51 -30 4 -23 -19
-28 -63 -12 -35 12 -42 11 -58 -3 -17 -17 -17 -18 5 -34 31 -24 76 -31 117
-19 39 11 60 35 61 71 0 37 -19 57 -70 72 -54 15 -69 47 -23 47 16 0 34 -5 41
-12 9 -9 16 -7 32 7 l21 19 -23 18 c-30 23 -106 23 -134 0z"/>
<path d="M2524 716 c-29 -29 -34 -41 -34 -81 0 -108 100 -171 173 -107 15 14
17 13 17 -1 0 -12 9 -17 30 -17 l30 0 0 120 0 120 -30 0 c-20 0 -30 -5 -30
-15 0 -8 -4 -15 -9 -15 -5 0 -14 7 -21 15 -7 9 -29 15 -52 15 -32 0 -47 -7
-74 -34z m142 -51 c38 -58 -24 -128 -81 -91 -24 16 -29 30 -25 71 3 32 20 45
56 45 25 0 38 -7 50 -25z"/>
<path d="M1170 418 c0 -2 -2 -78 -3 -171 l-2 -167 36 0 36 0 -5 71 -5 70 64
-2 c69 -2 69 -2 69 37 0 25 -1 25 -62 23 l-63 -3 -3 37 -3 37 75 0 76 0 0 35
0 35 -105 0 c-58 0 -105 -1 -105 -2z"/>
<path d="M1420 250 l0 -170 35 0 35 0 0 170 0 170 -35 0 -35 0 0 -170z"/>
<path d="M1574 287 c-36 -32 -39 -40 -39 -87 0 -47 3 -55 37 -86 34 -30 44
-34 94 -34 50 0 59 3 90 34 30 30 34 40 34 85 0 42 -5 56 -29 83 -24 27 -36
32 -88 36 -58 4 -62 3 -99 -31z m139 -49 c39 -52 -9 -120 -69 -98 -35 14 -44
26 -44 63 0 63 74 87 113 35z"/>
<path d="M1802 307 c2 -7 19 -62 38 -120 l35 -108 35 3 c33 3 35 5 54 71 10
37 22 67 26 67 3 0 14 -31 24 -70 l18 -70 37 0 36 0 32 103 c17 56 34 110 38
120 6 14 1 17 -28 17 -35 0 -36 -1 -52 -57 -27 -98 -30 -103 -43 -63 -6 19
-16 54 -22 78 -10 40 -13 43 -42 40 -30 -3 -32 -7 -51 -75 -17 -66 -37 -96
-37 -58 0 8 -7 42 -17 75 -16 58 -17 60 -50 60 -24 0 -33 -4 -31 -13z"/>
</g>
</svg>
